<?xml version="1.0" encoding="utf-8"?>
<!-- Generator: Adobe Illustrator 16.0.0, SVG Export Plug-In . SVG Version: 6.00 Build 0)  -->
<!DOCTYPE svg PUBLIC "-//W3C//DTD SVG 1.1//EN" "http://www.w3.org/Graphics/SVG/1.1/DTD/svg11.dtd">
<svg version="1.1" id="Layer_1" xmlns="http://www.w3.org/2000/svg" xmlns:xlink="http://www.w3.org/1999/xlink" x="0px" y="0px"
	 width="63.361px" height="129.707px" viewBox="0 0 63.361 129.707" style="enable-background:new 0 0 63.361 129.707;"
	 xml:space="preserve">
<path style="fill:#F1F5D3;" d="M46.633,127.335c0,1.311-5.94,2.371-8.752,2.371H8.312c-2.813,0-7.289-1.061-7.289-2.371
	L-0.001,23.062c0-1.31,2.28-2.371,5.093-2.371H41.54c2.813,0,5.094,0.397,5.094,0.887V127.335z"/>
<path style="fill:#DF1A24;" d="M46.633,127.746c0,1.084-5.94,1.961-8.752,1.961H8.312c-2.813,0-7.289-0.877-7.289-1.961
	l-1.024-86.242c0-1.083,2.28-1.961,5.093-1.961H41.54c2.813,0,5.094,0.329,5.094,0.733V127.746z"/>
<path style="fill:#FED9B3;stroke:#FFF200;stroke-width:7;stroke-miterlimit:10;" d="M41.627,49.693
	c10.067-1.553,17.906-10.101,18.224-20.647c0.36-11.901-8.999-21.838-20.897-22.192c-1.803-0.057-3.557,0.117-5.241,0.483"/>
<polygon style="fill:#FFFFFF;" points="37.417,28.656 49.833,43.178 50.796,42.355 39.805,29.499 55.647,35.091 56.069,33.897 
	40.12,28.267 56.634,25.181 56.402,23.935 39.698,27.056 52.314,15.848 51.473,14.9 38.902,26.067 44.471,10.317 43.276,9.895 
	36.799,28.213 37.25,28.373 37.208,28.41 37.345,28.57 37.326,28.624 "/>
<g>
	<line style="fill:none;stroke:#73BF44;stroke-width:13;stroke-miterlimit:10;" x1="9.756" y1="6.614" x2="27.477" y2="125.121"/>
	<line style="fill:none;stroke:#308835;stroke-miterlimit:10;" x1="5.642" y1="9.064" x2="24.497" y2="126.431"/>
	<line style="fill:none;stroke:#308835;stroke-miterlimit:10;" x1="9.721" y1="7.912" x2="28.576" y2="125.277"/>
	<line style="fill:none;stroke:#308835;stroke-miterlimit:10;" x1="13.799" y1="6.76" x2="32.656" y2="124.126"/>
</g>
<g>
	<line style="fill:none;stroke:#73BF44;stroke-width:13;stroke-miterlimit:10;" x1="25.662" y1="0.785" x2="11.248" y2="119.285"/>
	<line style="fill:none;stroke:#308835;stroke-miterlimit:10;" x1="21.881" y1="2.234" x2="8.622" y2="119.884"/>
	<line style="fill:none;stroke:#308835;stroke-miterlimit:10;" x1="25.325" y1="2.031" x2="12.065" y2="119.681"/>
	<line style="fill:none;stroke:#308835;stroke-miterlimit:10;" x1="28.769" y1="1.83" x2="15.509" y2="119.48"/>
</g>
<path style="fill:#DF1A24;" d="M27.159,41.463C25,43.144,21.97,44.23,18.056,44.23s-6.944-1.087-9.104-2.768H1.286v66.287h39V41.463
	H27.159z"/>
</svg>