<?xml version="1.0" encoding="utf-8"?>
<!DOCTYPE svg PUBLIC "-//W3C//DTD SVG 1.1//EN" "http://www.w3.org/Graphics/SVG/1.1/DTD/svg11.dtd">
<svg version="1.1" id="Layer_1" xmlns="http://www.w3.org/2000/svg" xmlns:xlink="http://www.w3.org/1999/xlink" x="0px" y="0px"
	 width="188.593px" height="193.854px" viewBox="0 0 128.593 133.854" style="enable-background:new 0 0 128.593 133.854;"
	 xml:space="preserve">
<path style="fill:#E3E54A;" d="M77.498,68.826c0,12.831-5.023,23.451-11.557,25.208c-0.624,0.177-1.264,0.262-1.916,0.262
	c-0.733,0-1.454-0.108-2.154-0.323c-6.419-1.949-11.324-12.469-11.324-25.146H77.498z"/>
<polygon style="fill:#E3E54A;" points="96.715,26.833 96.495,27.423 96.215,27.483 96.615,26.853 "/>
<path style="fill:#FEDEC5;" d="M28.923,31.158c0,3.905,0.362,7.692,1.053,11.313c2.508,13.266,9.322,24.256,18.356,30.245
	c1.27,11.316,5.879,20.306,11.789,23.099v23.15c-9.386,1.246-16.51,7.233-16.51,14.431h16.77c0.381,0.274,1.151,0.458,2.042,0.458
	h1.484c0.891,0,1.653-0.184,2.034-0.458h17.928c0-7.491-7.716-13.671-17.668-14.56V96.433c0.035-0.01,0.071-0.013,0.106-0.022
	c6.672-1.794,12.019-11.356,13.405-23.682c9.039-5.987,15.854-16.988,18.357-30.257c0.691-3.622,1.053-7.408,1.053-11.313H28.923z"
	/>
<path style="fill:#E3E54A;" d="M95.265,44.621c-3.354,17.774-16.779,30.926-31.24,30.926c-0.227,0-0.455,0-0.677-0.01
	c-14.16-0.402-26.895-13.417-30.203-30.917H95.265z"/>
<g>
	<g>
		<path style="fill:#B6D433;" d="M69.229,10.23c-1.32-0.22-2.64-0.33-3.95-0.31h-0.15c-10.39,0.17-19.53,7.71-21.35,18.31
			c-0.07,0.41-0.13,0.83-0.16,1.24l19.23,0.07h0.01l5.15,0.02l-0.55,0.61l0.32-0.01l-2.68,4.58v0.01l-9.76,16.77
			c1.97,1.02,4.14,1.76,6.45,2.16c11.98,2.05,23.4-6.03,25.45-18.01C89.289,23.69,81.199,12.28,69.229,10.23z"/>
	</g>
	<g>
		<path style="fill:#308835;" d="M94.809,36.96c-2.77,16.15-18.16,27.05-34.31,24.28c-3.24-0.55-6.27-1.61-9.02-3.1l0.36-0.61
			l1.58-2.69v-0.01l1.92-3.31c1.97,1.02,4.14,1.76,6.45,2.16c11.98,2.05,23.4-6.03,25.45-18.01c2.05-11.98-6.04-23.39-18.01-25.44
			c-1.32-0.22-2.64-0.33-3.95-0.31h-0.15c-10.39,0.17-19.53,7.71-21.35,18.31c-0.07,0.41-0.13,0.83-0.16,1.24l-3.86-0.01l-3.85-0.02
			c0.05-0.83,0.16-1.67,0.31-2.5c2.76-16.15,18.15-27.04,34.3-24.28C86.669,5.43,97.569,20.81,94.809,36.96z"/>
	</g>
	<g>
		<polygon style="fill:#FFFFFF;" points="68.011,29.562 62.863,29.537 62.852,29.535 49.455,17.508 50.474,16.369 64.806,29.235 
			63.77,9.999 65.129,9.919 65.14,9.921 65.285,9.912 65.283,9.923 66.322,29.15 79.189,14.818 80.327,15.835 		"/>
		<polygon style="fill:#FFFFFF;" points="67.545,31.695 81.878,44.562 80.861,45.689 66.528,32.823 67.565,52.06 66.049,52.146 
			65.098,34.748 65.1,34.737 67.774,30.155 86.698,29.131 86.784,30.647 		"/>
	</g>
</g>
</svg>