<?xml version="1.0" encoding="utf-8"?>
<!-- Generator: Adobe Illustrator 16.0.0, SVG Export Plug-In . SVG Version: 6.00 Build 0)  -->
<!DOCTYPE svg PUBLIC "-//W3C//DTD SVG 1.1//EN" "http://www.w3.org/Graphics/SVG/1.1/DTD/svg11.dtd">
<svg version="1.1" id="Layer_1" xmlns="http://www.w3.org/2000/svg" xmlns:xlink="http://www.w3.org/1999/xlink" x="0px" y="0px"
	 width="85.885px" height="129.62px" viewBox="0 0 85.885 129.62" style="enable-background:new 0 0 85.885 129.62;"
	 xml:space="preserve">
<path style="fill:#FEDEC5;" d="M85.885,118.636c0,6.066-4.917,10.984-10.982,10.984h-40.41c-6.065,0-10.982-4.918-10.982-10.982
	V47.234c0-6.065,4.917-10.982,10.982-10.982h40.41c6.065,0,10.982,4.917,10.982,10.981V118.636z"/>
<g>
	<path style="fill:#308835;stroke:#B6D433;stroke-width:7;stroke-miterlimit:10;" d="M40.769,62.181
		c7.158,5.242,17.313,4.703,24.091-1.741c7.652-7.271,8.104-19.306,1.011-26.881c-1.072-1.148-2.258-2.123-3.522-2.933"/>
	<polygon style="fill:#FFFFFF;" points="51.315,46.339 49.879,63.149 50.985,63.226 52.257,48.344 58.501,61.65 59.507,61.158 
		53.22,47.763 65.296,56.019 65.931,55.091 53.716,46.74 68.468,47.476 68.542,46.359 53.843,45.625 67.1,39.149 66.63,38.145 
		51.212,45.676 51.39,46.056 51.34,46.053 51.323,46.238 51.279,46.26 	"/>
</g>
<g>
	<path style="fill:#308835;" d="M33.843,13.032c7.342,10.727,4.946,27.617,4.946,27.617S22.22,36.741,14.876,26.013
		C7.533,15.286,11.063,0.098,11.063,0.098S26.499,2.303,33.843,13.032z"/>
	<g>
		<path style="fill:#73BF44;" d="M10.744,0c0,0,0.539,0.558,1.433,1.567s2.152,2.464,3.594,4.257c0.725,0.894,1.51,1.862,2.305,2.91
			c0.803,1.043,1.662,2.134,2.501,3.297c0.842,1.161,1.748,2.336,2.604,3.574c0.864,1.232,1.743,2.484,2.621,3.736
			c0.852,1.271,1.704,2.541,2.542,3.791c0.839,1.25,1.61,2.517,2.386,3.723c1.533,2.425,2.912,4.724,4.047,6.727
			c1.15,1.992,2.049,3.693,2.667,4.892c0.618,1.198,0.941,1.903,0.941,1.903s-0.54-0.557-1.434-1.566s-2.154-2.463-3.595-4.256
			c-1.456-1.783-3.1-3.9-4.806-6.207c-0.844-1.16-1.746-2.337-2.607-3.572c-0.862-1.234-1.738-2.487-2.614-3.741
			c-0.85-1.272-1.699-2.543-2.535-3.795c-0.845-1.246-1.613-2.516-2.39-3.721c-0.78-1.203-1.486-2.399-2.168-3.525
			c-0.689-1.121-1.308-2.203-1.878-3.202c-1.15-1.993-2.051-3.692-2.668-4.891C11.068,0.705,10.744,0,10.744,0z"/>
	</g>
	<path style="fill:#308835;" d="M19.718,28.089C30.175,28.803,37.87,40.847,37.87,40.847s-9.261,10.884-19.717,10.171
		C7.696,50.306,0,38.262,0,38.262S9.26,27.376,19.718,28.089z"/>
	<g>
		<path style="fill:#73BF44;" d="M0.026,37.892c0,0,0.624-0.088,1.711-0.181c1.087-0.093,2.64-0.205,4.497-0.255
			c1.858-0.071,4.021-0.071,6.335-0.038c2.314,0.047,4.778,0.157,7.238,0.32c2.459,0.171,4.916,0.395,7.214,0.662
			c2.298,0.28,4.44,0.574,6.271,0.898c1.833,0.302,3.355,0.625,4.42,0.866c1.065,0.24,1.671,0.413,1.671,0.413
			s-0.624,0.089-1.711,0.182c-1.088,0.094-2.64,0.208-4.497,0.257c-1.858,0.072-4.021,0.072-6.335,0.038
			c-2.313-0.047-4.777-0.16-7.238-0.324c-2.459-0.172-4.916-0.398-7.214-0.666c-2.298-0.281-4.44-0.575-6.272-0.898
			c-1.833-0.302-3.355-0.623-4.42-0.863C0.632,38.064,0.026,37.892,0.026,37.892z"/>
	</g>
	<path style="fill:#308835;" d="M55.77,25.274c-3.58,9.851-17.278,13.91-17.278,13.91s-7.899-11.911-4.322-21.758
		C37.748,7.573,51.451,3.513,51.451,3.513S59.35,15.422,55.77,25.274z"/>
	<g>
		<path style="fill:#73BF44;" d="M51.798,3.639c0,0-0.088,0.624-0.299,1.694s-0.533,2.593-1,4.392
			c-0.445,1.805-1.043,3.883-1.716,6.098c-0.685,2.21-1.472,4.547-2.31,6.866c-0.846,2.316-1.739,4.614-2.632,6.749
			c-0.906,2.13-1.781,4.107-2.598,5.777c-0.797,1.678-1.529,3.051-2.055,4.008s-0.859,1.491-0.859,1.491s0.087-0.624,0.298-1.695
			c0.21-1.071,0.531-2.594,0.997-4.392c0.445-1.806,1.043-3.883,1.716-6.098c0.686-2.21,1.475-4.546,2.313-6.864
			c0.847-2.316,1.743-4.613,2.636-6.748c0.906-2.13,1.781-4.107,2.598-5.778c0.797-1.677,1.527-3.052,2.053-4.008
			C51.466,4.174,51.798,3.639,51.798,3.639z"/>
	</g>
</g>
<g>
	<circle style="fill:#308835;stroke:#B6D433;stroke-width:7;stroke-miterlimit:10;" cx="57.254" cy="100.647" r="21.755"/>
	<polygon style="fill:#FFFFFF;" points="74.696,96.552 74.412,95.304 58.618,98.894 67.247,85.188 66.163,84.509 57.536,98.212 
		53.946,82.421 52.699,82.704 56.288,98.495 42.585,89.868 41.902,90.95 55.606,99.579 39.815,103.167 40.099,104.415 
		55.89,100.827 47.26,114.53 48.343,115.214 56.972,101.509 60.562,117.302 61.81,117.019 58.22,101.224 71.926,109.854 
		72.608,108.771 58.901,100.142 	"/>
</g>
</svg>