<?xml version="1.0" encoding="utf-8"?>
<!DOCTYPE svg PUBLIC "-//W3C//DTD SVG 1.1//EN" "http://www.w3.org/Graphics/SVG/1.1/DTD/svg11.dtd">
<svg version="1.1" id="Layer_1" xmlns="http://www.w3.org/2000/svg" xmlns:xlink="http://www.w3.org/1999/xlink" x="0px" y="0px"
	 width="126px" height="194px" viewBox="0 0 66 134.401" style="enable-background:new 0 0 66 134.401;" xml:space="preserve">
<path style="fill:#FEDEC5;" d="M51.274,134.022H33.346c-0.38,0.227-1.143,0.379-2.034,0.379h-1.484
	c-0.891,0-1.661-0.152-2.042-0.379h-16.77c0-5.961,7.125-10.922,16.51-11.955v-19.885c1.045,0.211,2.123,0.318,3.217,0.318
	c0.973,0,1.929-0.084,2.861-0.258v19.717C43.558,122.696,51.274,127.817,51.274,134.022z"/>
<path style="fill:#308835;" d="M39.296,27.013C36.853,41.308,28.75,54.472,28.75,54.472s-3.35-14.506-0.907-28.804
	C30.285,11.371,37.99,0.454,37.99,0.454S41.737,12.714,39.296,27.013z"/>
<path style="fill:#308835;" d="M33.86,23.724c4.928,13.85,4.137,28.612,4.137,28.612S27.693,40.283,22.766,26.431
	C17.838,12.581,19.391,0,19.391,0S28.934,9.872,33.86,23.724z"/>
<g>
	<path style="fill:#FEDEC5;" d="M7.47,31.355H7.44c-0.02-0.083-0.03-0.157-0.04-0.224C7.42,31.198,7.45,31.272,7.47,31.355z"/>
	<path style="fill:#FEDEC5;" d="M55.069,21.041c0,0-0.719,4.292-1.68,10.041c-0.08-0.042-0.17-0.075-0.25-0.107
		c0.16-0.572,0.26-0.87,0.26-0.87l-6.719,0.058l-9.921,0.083L7.29,30.493c-0.95-5.352-1.63-9.253-1.63-9.253l29.46-0.116l18.6-0.074
		L55.069,21.041z"/>
	<path style="fill:#FCE892;" d="M7.4,31.131c-0.13-0.415-0.21-0.638-0.21-0.638h0.1C7.33,30.708,7.36,30.916,7.4,31.131z"/>
	<path style="fill:#FFE81C;" d="M49.33,47.642c1.18-7.381,3.11-14.291,3.81-16.668c0.16-0.572,0.26-0.87,0.26-0.87l-6.719,0.058
		l-9.921,0.083L7.29,30.493c0.04,0.215,0.07,0.422,0.11,0.638c0.02,0.066,0.05,0.141,0.07,0.224c0.8,2.485,3.11,10.008,4.35,17.704
		C4.61,55.057,0,64.268,0,74.608c0,18.076,14.1,32.723,31.5,32.723c17.399,0,31.5-14.646,31.5-32.723
		C63,63.408,57.59,53.532,49.33,47.642z"/>
</g>
<g>
	<g>
		<path style="fill:#FFE81C;" d="M3.256,3.697c0,0,0.649,0.319,1.695,0.945C5.475,4.954,6.112,5.332,6.8,5.798
			c0.349,0.229,0.721,0.474,1.112,0.731C8.114,6.654,8.24,6.843,8.349,7.051c0.112,0.206,0.269,0.385,0.413,0.581
			c2.348,3.087,5.479,7.204,8.61,11.32c3.131,4.117,6.262,8.233,8.61,11.32c0.15,0.19,0.281,0.39,0.445,0.556
			c0.177,0.157,0.311,0.34,0.37,0.573c0.143,0.446,0.279,0.869,0.407,1.267c0.265,0.789,0.46,1.503,0.626,2.087
			c0.329,1.171,0.474,1.873,0.474,1.873s-0.638-0.327-1.678-0.957c-0.52-0.316-1.155-0.695-1.845-1.161
			c-0.349-0.229-0.721-0.473-1.112-0.73c-0.209-0.119-0.35-0.296-0.454-0.509c-0.116-0.203-0.273-0.382-0.417-0.577
			c-2.348-3.087-5.479-7.204-8.61-11.32c-3.131-4.117-6.262-8.233-8.61-11.32c-0.15-0.19-0.28-0.39-0.449-0.553
			C4.957,9.34,4.809,9.167,4.743,8.94c-0.144-0.446-0.28-0.87-0.407-1.267C4.07,6.885,3.875,6.17,3.714,5.582
			C3.39,4.407,3.256,3.697,3.256,3.697z"/>
	</g>
</g>
<polygon style="fill:#FFE81C;" points="66,11.011 61.72,16.562 54.681,25.674 52.819,28.077 44.931,26.677 44.76,25.757 
	43.12,16.636 41.31,6.645 "/>
<circle style="fill:#DF1A24;" cx="25.584" cy="34.641" r="8.5"/>
<circle style="fill:#DF1A24;" cx="14.896" cy="19.312" r="8.5"/>
</svg>