<svg version="1.1" id="Layer_1" xmlns="http://www.w3.org/2000/svg" xmlns:xlink="http://www.w3.org/1999/xlink" x="0px" y="0px"
	 width="128.593px" height="133.854px" viewBox="0 0 128.593 133.854" style="enable-background:new 0 0 128.593 133.854;"
	 xml:space="preserve">
<style type="text/css">
<![CDATA[
	.st0{fill:#B6D433;stroke:#308835;stroke-width:7;stroke-miterlimit:10;}
	.st1{fill:#F1F5D3;}
	.st2{fill:#F2BA1B;}
	.st3{fill:#FFFFFF;}
	.st4{fill:none;stroke:#B8CC9C;stroke-width:6;stroke-miterlimit:10;}
	.st5{fill:#DF1A24;}
]]>
</style>
<path class="st1" d="M128.593,131.482c0,1.311-11.513,2.371-16.962,2.371H54.322c-5.45,0-14.125-1.061-14.125-2.371L38.21,27.209
	c0-1.31,4.42-2.371,9.87-2.371h70.642c5.45,0,9.87,0.397,9.87,0.887V131.482z"/>
<path class="st2" d="M128.593,131.893c0,1.084-11.513,1.961-16.962,1.961H54.322c-5.45,0-14.125-0.877-14.125-1.961L38.21,45.651
	c0-1.083,4.42-1.961,9.87-1.961h70.642c5.45,0,9.87,0.329,9.87,0.733V131.893z"/>
<g>
	<path class="st4" d="M127.754,2.931c-8.582,1.881-19.07,6.498-21.117,16.057"/>
	<circle class="st5" cx="93.992" cy="31.079" r="18.033"/>
</g>
<g>
	<path class="st0" d="M71.525,46.317c0.51-16.07-10.48-30.71-26.75-34.26c-18.36-4.01-36.49,7.63-40.49,25.99
		c-0.61,2.78-0.85,5.55-0.77,8.27"/>
	<polygon class="st3" points="37.666,46.75 63.797,31.698 62.799,29.965 39.666,43.289 52.936,20.332 51.205,19.331 37.845,42.443 
		37.845,15.927 35.845,15.927 35.845,42.749 22.113,19.924 20.399,20.955 34.081,43.696 11.259,30.489 10.257,32.221 36.8,47.581 
		37.178,46.927 37.223,47.005 37.512,46.838 37.589,46.883 	"/>
</g>
</svg>